<svg xmlns="http://www.w3.org/2000/svg" xmlns:xlink="http://www.w3.org/1999/xlink" viewBox="0 0 664 371" width="664" height="371"><path d="M 218.000,150.000 C 200.876,179.930 201.000,180.000 184.000,210.000" stroke-width="2.514" stroke="black" fill="none" stroke-linecap="round"></path><path d="M 184.000,210.000 C 174.573,229.647 173.376,228.930 163.000,248.000" stroke-width="1.946" stroke="black" fill="none" stroke-linecap="round"></path><path d="M 163.000,248.000 C 131.751,329.380 125.073,308.147 85.000,367.000" stroke-width="1.125" stroke="black" fill="none" stroke-linecap="round"></path><path d="M 85.000,367.000 C 44.875,367.372 67.751,380.880 35.000,351.000" stroke-width="2.046" stroke="black" fill="none" stroke-linecap="round"></path><path d="M 35.000,351.000 C 39.075,326.844 25.875,335.872 47.000,304.000" stroke-width="1.597" stroke="black" fill="none" stroke-linecap="round"></path><path d="M 47.000,304.000 C 54.657,276.623 56.075,277.844 69.000,253.000" stroke-width="1.391" stroke="black" fill="none" stroke-linecap="round"></path><path d="M 69.000,253.000 C 97.276,205.211 97.157,206.623 132.000,164.000" stroke-width="1.125" stroke="black" fill="none" stroke-linecap="round"></path><path d="M 132.000,164.000 C 144.871,151.526 142.776,151.211 160.000,145.000" stroke-width="1.372" stroke="black" fill="none" stroke-linecap="round"></path><path d="M 160.000,145.000 C 172.578,138.417 170.371,140.526 183.000,142.000" stroke-width="1.986" stroke="black" fill="none" stroke-linecap="round"></path><path d="M 183.000,142.000 C 206.748,151.095 204.578,149.417 224.000,167.000" stroke-width="1.541" stroke="black" fill="none" stroke-linecap="round"></path><path d="M 224.000,167.000 C 235.683,183.880 238.748,180.595 247.000,201.000" stroke-width="1.566" stroke="black" fill="none" stroke-linecap="round"></path><path d="M 247.000,201.000 C 256.060,212.908 255.183,213.380 263.000,226.000" stroke-width="1.919" stroke="black" fill="none" stroke-linecap="round"></path><path d="M 263.000,226.000 C 277.216,254.900 278.060,254.408 291.000,284.000" stroke-width="1.279" stroke="black" fill="none" stroke-linecap="round"></path><path d="M 291.000,284.000 C 294.601,293.202 295.216,292.900 299.000,302.000" stroke-width="1.987" stroke="black" fill="none" stroke-linecap="round"></path><path d="M 299.000,302.000 C 301.833,311.866 302.601,309.202 307.000,316.000" stroke-width="2.542" stroke="black" fill="none" stroke-linecap="round"></path></svg>